<svg width="54" height="52" viewBox="0 0 54 52" fill="none" xmlns="http://www.w3.org/2000/svg">
<g clip-path="url(#clip0_225_15)">
<path d="M26.8069 0C19.6155 0 18.7112 0.0325 15.8856 0.156C13.0601 0.286 11.1355 0.7215 9.44945 1.365C7.68088 2.01766 6.07895 3.04144 4.75563 4.36475C3.4077 5.66376 2.36436 7.23528 1.6982 8.97C1.04232 10.621 0.595133 12.5125 0.465946 15.275C0.340071 18.0537 0.306946 18.9378 0.306946 26.0033C0.306946 33.0623 0.340071 33.9463 0.465946 36.7185C0.598446 39.4875 1.04232 41.3757 1.6982 43.03C2.37726 44.7395 3.28157 46.189 4.75563 47.6352C6.22638 49.0815 7.70376 49.972 9.44613 50.635C11.1355 51.2785 13.0568 51.7172 15.879 51.844C18.7079 51.9675 19.6089 52 26.8069 52C34.005 52 34.9027 51.9675 37.7316 51.844C40.5505 51.714 42.4817 51.2785 44.1678 50.635C45.9352 49.982 47.536 48.9583 48.8583 47.6352C50.3323 46.189 51.2366 44.7395 51.9157 43.03C52.5683 41.3757 53.0154 39.4875 53.1479 36.7185C53.2738 33.9463 53.3069 33.0623 53.3069 26C53.3069 18.9377 53.2738 18.0538 53.1479 15.2783C53.0154 12.5125 52.5683 10.621 51.9157 8.97C51.2496 7.23523 50.2063 5.6637 48.8583 4.36475C47.5353 3.04095 45.9333 2.0171 44.1644 1.365C42.4751 0.7215 40.5472 0.28275 37.7283 0.156C34.8994 0.0325 34.0017 0 26.8003 0H26.8103H26.8069ZM24.4319 4.6865H26.8103C33.8858 4.6865 34.7238 4.70925 37.5163 4.836C40.1 4.94975 41.5045 5.3755 42.4386 5.72975C43.6742 6.201 44.5586 6.7665 45.4861 7.6765C46.4136 8.5865 46.9867 9.451 47.467 10.6665C47.8314 11.5798 48.262 12.9578 48.3779 15.4928C48.5071 18.2325 48.5336 19.0548 48.5336 25.9935C48.5336 32.9323 48.5071 33.7577 48.3779 36.4975C48.262 39.0325 47.8281 40.4073 47.467 41.3238C47.0422 42.4527 46.364 43.4734 45.4828 44.3105C44.5553 45.2205 43.6742 45.7828 42.4353 46.254C41.5078 46.6115 40.1033 47.034 37.5163 47.151C34.7238 47.2745 33.8858 47.3038 26.8103 47.3038C19.7348 47.3038 18.8934 47.2745 16.1009 47.151C13.5172 47.034 12.116 46.6115 11.1819 46.254C10.0308 45.8377 8.98943 45.1736 8.13438 44.3105C7.25243 43.4721 6.57328 42.4504 6.14688 41.3205C5.78582 40.4072 5.35188 39.0293 5.23595 36.4943C5.11007 33.7545 5.08357 32.9322 5.08357 25.987C5.08357 19.045 5.11007 18.226 5.23595 15.4862C5.3552 12.9512 5.78582 11.5733 6.1502 10.6568C6.63051 9.4445 7.20688 8.57675 8.13438 7.66675C9.06188 6.75675 9.94301 6.1945 11.1819 5.72325C12.116 5.36575 13.5172 4.94325 16.1009 4.82625C18.5456 4.71575 19.4929 4.68325 24.4319 4.68V4.6865ZM40.9546 9.0025C40.537 9.0025 40.1235 9.0832 39.7377 9.24C39.3519 9.39679 39.0013 9.62661 38.706 9.91633C38.4107 10.206 38.1765 10.55 38.0167 10.9285C37.8569 11.3071 37.7746 11.7128 37.7746 12.1225C37.7746 12.5322 37.8569 12.9379 38.0167 13.3165C38.1765 13.695 38.4107 14.039 38.706 14.3287C39.0013 14.6184 39.3519 14.8482 39.7377 15.005C40.1235 15.1618 40.537 15.2425 40.9546 15.2425C41.798 15.2425 42.6069 14.9138 43.2032 14.3287C43.7996 13.7436 44.1346 12.95 44.1346 12.1225C44.1346 11.295 43.7996 10.5014 43.2032 9.91633C42.6069 9.33121 41.798 9.0025 40.9546 9.0025ZM26.8103 12.649C25.0052 12.6214 23.2125 12.9463 21.5367 13.605C19.8608 14.2636 18.3353 15.2427 17.0488 16.4854C15.7624 17.728 14.7407 19.2093 14.0434 20.8431C13.346 22.4768 12.9869 24.2304 12.9869 26.0016C12.9869 27.7729 13.346 29.5264 14.0434 31.1602C14.7407 32.7939 15.7624 34.2752 17.0488 35.5179C18.3353 36.7605 19.8608 37.7397 21.5367 38.3983C23.2125 39.0569 25.0052 39.3819 26.8103 39.3543C30.3829 39.2996 33.7904 37.8687 36.2972 35.3706C38.804 32.8724 40.209 29.5073 40.209 26.0016C40.209 22.4959 38.804 19.1308 36.2972 16.6327C33.7904 14.1345 30.3829 12.7037 26.8103 12.649ZM26.8103 17.3323C29.1533 17.3323 31.4004 18.2455 33.0572 19.871C34.7139 21.4965 35.6447 23.7012 35.6447 26C35.6447 28.2988 34.7139 30.5035 33.0572 32.129C31.4004 33.7545 29.1533 34.6677 26.8103 34.6677C24.4672 34.6677 22.2201 33.7545 20.5634 32.129C18.9066 30.5035 17.9758 28.2988 17.9758 26C17.9758 23.7012 18.9066 21.4965 20.5634 19.871C22.2201 18.2455 24.4672 17.3323 26.8103 17.3323Z" fill="#2D51E3"/>
</g>
<defs>
<clipPath id="clip0_225_15">
<rect width="53" height="52" fill="white" transform="translate(0.306946)"/>
</clipPath>
</defs>
</svg>
