<svg width="53" height="52" viewBox="0 0 53 52" fill="none" xmlns="http://www.w3.org/2000/svg">
<path d="M21.9737 32.5002L33.2187 26.0002L21.9737 19.5002V32.5002ZM47.0203 15.5352C47.302 16.5535 47.497 17.9185 47.627 19.6518C47.7787 21.3852 47.8437 22.8802 47.8437 24.1802L47.9737 26.0002C47.9737 30.7452 47.627 34.2335 47.0203 36.4652C46.4787 38.4152 45.222 39.6718 43.272 40.2135C42.2537 40.4952 40.3903 40.6902 37.5303 40.8202C34.7137 40.9718 32.1353 41.0368 29.752 41.0368L26.307 41.1668C17.2287 41.1668 11.5737 40.8202 9.34202 40.2135C7.39202 39.6718 6.13535 38.4152 5.59368 36.4652C5.31202 35.4468 5.11702 34.0818 4.98702 32.3485C4.83535 30.6152 4.77035 29.1202 4.77035 27.8202L4.64035 26.0002C4.64035 21.2552 4.98702 17.7668 5.59368 15.5352C6.13535 13.5852 7.39202 12.3285 9.34202 11.7868C10.3604 11.5052 12.2237 11.3102 15.0837 11.1802C17.9003 11.0285 20.4787 10.9635 22.862 10.9635L26.307 10.8335C35.3853 10.8335 41.0403 11.1802 43.272 11.7868C45.222 12.3285 46.4787 13.5852 47.0203 15.5352Z" fill="#2D51E3"/>
</svg>
