<svg width="39" height="36" viewBox="0 0 39 36" fill="none" xmlns="http://www.w3.org/2000/svg">
<path d="M5.52905 22.7299L18.8291 10.3554C18.9874 10.2085 19.1589 10.1042 19.3436 10.0425C19.5284 9.98081 19.7263 9.95046 19.9374 9.95144C20.1485 9.95144 20.3464 9.98179 20.5311 10.0425C20.7159 10.1032 20.8874 10.2075 21.0457 10.3554L34.3853 22.7299C34.7547 23.0726 34.9395 23.501 34.9395 24.015C34.9395 24.5291 34.7416 24.9698 34.3457 25.337C33.9499 25.7041 33.4881 25.8877 32.9603 25.8877C32.4325 25.8877 31.9707 25.7041 31.5749 25.337L19.9374 14.5414L8.29988 25.337C7.93044 25.6797 7.47497 25.851 6.93347 25.851C6.39197 25.851 5.92383 25.6674 5.52905 25.3002C5.13322 24.933 4.9353 24.5046 4.9353 24.015C4.9353 23.5255 5.13322 23.0971 5.52905 22.7299Z" fill="white"/>
</svg>
