<svg width="472" height="923" viewBox="0 0 472 923" fill="none" xmlns="http://www.w3.org/2000/svg">
<path d="M302.069 625.439C324.221 587.579 338.705 545.757 344.692 502.363C350.679 458.968 348.052 414.851 336.961 372.529C325.87 330.207 306.533 290.509 280.053 255.703C253.573 220.896 220.47 191.662 182.632 169.67C144.794 147.678 102.964 133.359 59.529 127.529C16.094 121.7 -28.0948 124.475 -70.5145 135.696C-112.934 146.916 -152.754 166.363 -187.701 192.925C-222.647 219.488 -252.036 252.646 -274.189 290.506L-226.414 318.274C-207.934 286.691 -183.418 259.031 -154.266 236.873C-125.115 214.715 -91.8972 198.493 -56.5111 189.133C-21.125 179.772 15.7368 177.458 51.9698 182.321C88.2028 187.183 123.097 199.129 154.661 217.474C186.225 235.819 213.84 260.206 235.929 289.241C258.018 318.276 274.149 351.392 283.401 386.696C292.652 422.001 294.844 458.803 289.849 495.003C284.855 531.202 272.773 566.089 254.294 597.671L302.069 625.439Z" fill="url(#paint0_linear_44_252)"/>
<path d="M-279.112 298.907C-301.156 336.83 -315.52 378.693 -321.382 422.105C-327.244 465.516 -324.49 509.626 -313.278 551.916C-302.066 594.206 -282.615 633.848 -256.035 668.578C-229.455 703.308 -196.268 732.447 -158.367 754.33C-120.467 776.214 -78.5954 790.413 -35.1438 796.117C8.30767 801.822 52.4884 798.92 94.8757 787.578C137.263 776.235 177.027 756.674 211.897 730.012C246.767 703.349 276.06 670.107 298.105 632.183L250.25 604.552C231.861 636.188 207.425 663.918 178.337 686.16C149.248 708.402 116.078 724.72 80.7188 734.181C45.3598 743.643 8.50473 746.064 -27.7421 741.305C-63.9888 736.546 -98.9175 724.701 -130.534 706.446C-162.15 688.192 -189.835 663.885 -212.007 634.913C-234.18 605.941 -250.406 572.873 -259.759 537.595C-269.112 502.317 -271.409 465.521 -266.519 429.307C-261.629 393.094 -249.647 358.173 -231.258 326.537L-279.112 298.907Z" fill="#2D51E3"/>
<defs>
<linearGradient id="paint0_linear_44_252" x1="182.632" y1="169.67" x2="11.14" y2="463.86" gradientUnits="userSpaceOnUse">
<stop stop-color="white"/>
<stop offset="1" stop-color="white"/>
</linearGradient>
</defs>
</svg>
