<svg width="1004" height="1012" viewBox="0 0 1004 1012" fill="none" xmlns="http://www.w3.org/2000/svg">
<g filter="url(#filter0_f_74_92)">
<path d="M527.147 25.9917L825.867 149.725C842.161 156.475 855.107 169.421 861.857 185.715L985.59 484.434C992.34 500.729 992.34 519.037 985.59 535.331L861.857 834.051C855.107 850.345 842.161 863.291 825.867 870.041L527.147 993.774C510.853 1000.52 492.545 1000.52 476.25 993.774L177.531 870.041C161.237 863.291 148.291 850.345 141.541 834.051L17.8077 535.331C11.0583 519.037 11.0583 500.729 17.8077 484.435L141.541 185.715C148.291 169.421 161.237 156.475 177.531 149.725L476.25 25.9917C492.545 19.2424 510.853 19.2423 527.147 25.9917Z" stroke="#2D51E3" stroke-width="7"/>
</g>
<g filter="url(#filter1_f_74_92)">
<path d="M526.997 17.5879L825.848 140.519C842.159 147.228 855.136 160.142 861.926 176.419L985.45 472.568C992.283 488.95 992.283 507.385 985.45 523.767L861.926 819.915C855.136 836.193 842.159 849.106 825.848 855.816L526.997 978.747C510.79 985.413 492.608 985.413 476.401 978.747L177.55 855.816C161.239 849.106 148.262 836.193 141.472 819.915L17.9482 523.767C11.115 507.385 11.115 488.95 17.9482 472.568L141.472 176.419C148.262 160.142 161.239 147.228 177.55 140.519L476.401 17.5879C492.608 10.9215 510.79 10.9214 526.997 17.5879Z" stroke="#2D51E3" stroke-width="7"/>
</g>
<path d="M527.147 25.9917L822.42 148.298C838.715 155.047 851.66 167.993 858.41 184.287L980.716 479.56C987.465 495.855 987.465 514.163 980.716 530.457L858.41 825.73C851.66 842.024 838.715 854.97 822.42 861.719L527.147 984.026C510.853 990.775 492.545 990.775 476.25 984.026L180.978 861.719C164.683 854.97 151.737 842.024 144.988 825.73L22.6819 530.457C15.9326 514.163 15.9326 495.855 22.6819 479.56L144.988 184.287C151.737 167.993 164.683 155.047 180.978 148.298L476.25 25.9917C492.545 19.2423 510.853 19.2423 527.147 25.9917Z" stroke="#2D51E3" stroke-width="7"/>
<defs>
<filter id="filter0_f_74_92" x="0.245667" y="8.42969" width="1002.91" height="1002.91" filterUnits="userSpaceOnUse" color-interpolation-filters="sRGB">
<feFlood flood-opacity="0" result="BackgroundImageFix"/>
<feBlend mode="normal" in="SourceGraphic" in2="BackgroundImageFix" result="shape"/>
<feGaussianBlur stdDeviation="4.5" result="effect1_foregroundBlur_74_92"/>
</filter>
<filter id="filter1_f_74_92" x="0.323303" y="0.0880127" width="1002.75" height="996.159" filterUnits="userSpaceOnUse" color-interpolation-filters="sRGB">
<feFlood flood-opacity="0" result="BackgroundImageFix"/>
<feBlend mode="normal" in="SourceGraphic" in2="BackgroundImageFix" result="shape"/>
<feGaussianBlur stdDeviation="4.5" result="effect1_foregroundBlur_74_92"/>
</filter>
</defs>
</svg>
